<svg id="Layer_1" data-name="Layer 1" xmlns="http://www.w3.org/2000/svg" viewBox="0 0 1320.048 639.816">
  <g>
    <g>
      <path d="M1217.1,453.126c-6.4,19.39-28.49,36.62-21.89,50.88,2.51,5.42,5.03,11.09,6.19,16.88a29.464,29.464,0,0,1,.37,10.51c-2.38,15.1-16.51,25.13-29.65,32.94-.81.48-1.63.97-2.45,1.46-12.45,7.46-25.49,16.05-29.49,29.82-2.22,7.65-1.24,15.83-2.16,23.74a49.641,49.641,0,0,1-7.23,20.46h-83.91c-7.45-8.21-6.83-22.01-1.16-31.69,6.07-10.36,16.32-17.4,25.57-25.06,7.99-6.62,15.78-14.59,18.83-24.31a29.535,29.535,0,0,0,1.07-4.71c.74-5.26.34-32.13,9.46-48.67,14.1-25.54,36.97-19.25,43.96-33.66,2.68-5.52,4.99-73.35,49.54-60.82A33.129,33.129,0,0,1,1217.1,453.126Z" fill="#c1d8ed"/>
      <path d="M1298.588,559.186a20.383,20.383,0,0,1-4.1,2.18c-12.02,4.51-45.45,4.01-50.34,15.88-2.3,5.58-2.85,11.74-4.82,17.45-4.47,12.95-16.27,22.66-29.47,26.31-4.75,1.31-9.67,1.92-14.37,3.38-9.08,2.83-16.6,8.52-23.21,15.43h-108.37a42.679,42.679,0,0,1,19.56-36.16c12.05-7.6,27.27-9.02,39.1-16.96,7.8-5.24,13.41-12.81,17.86-21.18a154.711,154.711,0,0,0,7.49-16.89c3.31-8.59,6.77-17.81,14.29-23.13a36.693,36.693,0,0,1,12.07-5.06c10.86-2.84,19.21-1.17,27.12.45,9.6,1.96,18.56,3.83,30.59-2.56,21.34-11.34,52.54-67.89,83.72-14.16C1328.208,525.716,1310.958,550.906,1298.588,559.186Z" fill="#8ddbe0"/>
    </g>
    <g>
      <path d="M102.949,453.126c6.4,19.39,28.491,36.62,21.891,50.88-2.511,5.42-5.031,11.09-6.19,16.88a29.464,29.464,0,0,0-.371,10.51c2.38,15.1,16.511,25.13,29.65,32.94.81.48,1.63.97,2.451,1.46,12.449,7.46,25.489,16.05,29.489,29.82,2.221,7.65,1.241,15.83,2.16,23.74a49.655,49.655,0,0,0,7.23,20.46H273.17c7.449-8.21,6.83-22.01,1.159-31.69-6.07-10.36-16.32-17.4-25.57-25.06-7.99-6.62-15.78-14.59-18.83-24.31a29.533,29.533,0,0,1-1.069-4.71c-.741-5.26-.341-32.13-9.46-48.67-14.1-25.54-36.971-19.25-43.96-33.66-2.681-5.52-4.991-73.35-49.54-60.82A33.131,33.131,0,0,0,102.949,453.126Z" fill="#c1d8ed"/>
      <path d="M21.46,559.186a20.378,20.378,0,0,0,4.1,2.18c12.02,4.51,45.45,4.01,50.341,15.88,2.3,5.58,2.85,11.74,4.819,17.45,4.471,12.95,16.27,22.66,29.471,26.31,4.75,1.31,9.67,1.92,14.369,3.38,9.08,2.83,16.6,8.52,23.21,15.43h108.37a42.674,42.674,0,0,0-19.56-36.16c-12.05-7.6-27.27-9.02-39.1-16.96-7.8-5.24-13.409-12.81-17.86-21.18a154.512,154.512,0,0,1-7.489-16.89c-3.31-8.59-6.77-17.81-14.29-23.13a36.707,36.707,0,0,0-12.071-5.06c-10.86-2.84-19.21-1.17-27.119.45-9.6,1.96-18.56,3.83-30.591-2.56-21.34-11.34-52.54-67.89-83.719-14.16C-8.16,525.716,9.09,550.906,21.46,559.186Z" fill="#8ddbe0"/>
    </g>
    <rect x="173.57" y="597.555" width="975.13" height="42.261" rx="21.13" fill="#dee8f5"/>
    <g>
      <rect x="235.989" width="847.161" height="604.422" rx="31.122" fill="#dee8f5"/>
      <rect x="255.284" y="21.225" width="808.57" height="561.3" rx="13.76" fill="#fff"/>
    </g>
  </g>
  <rect x="285.091" y="52.417" width="748.957" height="498.916" fill="#f3f5fd"/>
  <g opacity="0.72">
    <rect x="312.605" y="115.127" width="62.118" height="435.56" fill="#c1d8ed"/>
    <rect x="374.723" y="115.127" width="203.581" height="435.56" transform="translate(953.028 665.814) rotate(-180)" fill="#dee8f5"/>
    <g opacity="0.53">
      <rect x="383.9" y="389.439" width="185.228" height="152.167" transform="translate(953.028 931.045) rotate(-180)" fill="#f3f5fd"/>
    </g>
    <g opacity="0.53">
      <rect x="383.9" y="124.495" width="185.228" height="79.048" transform="translate(953.028 328.038) rotate(-180)" fill="#fff"/>
    </g>
    <g opacity="0.53">
      <rect x="383.9" y="212.553" width="185.228" height="79.048" transform="translate(953.028 504.155) rotate(-180)" fill="#fff"/>
    </g>
    <g opacity="0.53">
      <rect x="383.9" y="300.611" width="185.228" height="79.048" transform="translate(953.028 680.271) rotate(-180)" fill="#fff"/>
    </g>
    <rect x="472.408" y="386.808" width="8.212" height="157.704" transform="translate(953.028 931.32) rotate(-180)" fill="#dee8f5"/>
    <g>
      <circle cx="500.808" cy="510.432" r="8.356" fill="#fff"/>
      <circle cx="452.219" cy="510.432" r="8.356" fill="#fff"/>
    </g>
    <g>
      <polygon points="534.466 228.36 534.466 240.772 534.466 291.601 469.224 291.601 469.224 240.772 469.224 228.36 534.466 228.36" fill="#c1d8ed"/>
      <rect x="489.018" y="240.772" width="65.242" height="50.829" fill="#dee8f5"/>
      <rect x="489.018" y="240.772" width="65.242" height="3.81" fill="#c1d8ed"/>
      <rect x="489.018" y="228.36" width="65.242" height="12.412" transform="translate(1043.278 469.132) rotate(-180)" fill="#dee8f5"/>
      <rect x="512.905" y="250.981" width="17.468" height="7.632" rx="1.65" transform="translate(1043.278 509.594) rotate(-180)" fill="#fff"/>
    </g>
    <g>
      <polygon points="461.294 236.966 461.294 247.689 461.294 291.601 404.93 291.601 404.93 247.689 404.93 236.966 461.294 236.966" fill="#c1d8ed"/>
      <rect x="423.404" y="247.689" width="56.364" height="43.912" fill="#dee8f5"/>
      <rect x="423.404" y="247.689" width="56.364" height="3.292" fill="#c1d8ed"/>
      <rect x="423.404" y="236.966" width="56.364" height="10.723" transform="translate(903.171 484.655) rotate(-180)" fill="#dee8f5"/>
      <rect x="444.04" y="256.509" width="15.091" height="6.593" rx="1.426" transform="translate(903.171 519.611) rotate(-180)" fill="#fff"/>
    </g>
    <g>
      <rect x="550.857" y="151.942" width="8.76" height="46.454" transform="translate(55.199 -123.05) rotate(13.302)" fill="#fff"/>
      <g>
        <rect x="545.827" y="148.15" width="4.813" height="40.35" transform="translate(-21.439 102.246) rotate(-10.452)" fill="#c1d8ed"/>
        <rect x="542.584" y="148.445" width="4.813" height="4.455" transform="translate(-18.56 104.54) rotate(-10.775)" fill="#dee8f5"/>
      </g>
      <rect x="534.315" y="176.705" width="41.845" height="2.825" transform="translate(186.006 629.43) rotate(-68.498)" fill="#c1d8ed"/>
      <rect x="541.831" y="175.169" width="23.12" height="29.549" fill="#c1d8ed"/>
    </g>
    <g>
      <rect x="509.984" y="152.139" width="19.617" height="52.006" fill="#c1d8ed"/>
      <rect x="501.452" y="144.982" width="10.497" height="59.162" fill="#dee8f5"/>
      <rect x="485.119" y="148.322" width="16.332" height="55.823" fill="#fff"/>
      <rect x="435.957" y="148.322" width="9.542" height="55.823" fill="#dee8f5"/>
      <rect x="455.647" y="154.286" width="20.039" height="47.712" transform="translate(-30.991 221.853) rotate(-25.964)" fill="#dee8f5"/>
      <rect x="416.414" y="152.454" width="19.617" height="52.006" fill="#c1d8ed"/>
      <rect x="407.882" y="145.297" width="10.497" height="59.162" fill="#dee8f5"/>
      <rect x="391.549" y="148.637" width="16.332" height="55.823" fill="#c1d8ed"/>
    </g>
    <g>
      <rect x="501.853" y="323.672" width="9.542" height="55.823" transform="translate(126.314 -133.847) rotate(17.164)" fill="#dee8f5"/>
      <rect x="399.919" y="327.654" width="19.617" height="52.006" fill="#c1d8ed"/>
      <rect x="417.572" y="320.497" width="10.497" height="59.162" fill="#fff"/>
      <rect x="428.069" y="323.837" width="16.332" height="55.823" fill="#dee8f5"/>
      <rect x="484.021" y="323.837" width="9.542" height="55.823" fill="#dee8f5"/>
      <rect x="453.834" y="329.969" width="20.039" height="47.712" transform="translate(201.725 -167.367) rotate(25.964)" fill="#fff"/>
    </g>
    <g>
      <path d="M524.246,351.861a3.087,3.087,0,0,0,4.2,1.2,3.223,3.223,0,0,1,3.049.548c1.738,1.607,2.557,2.868,2.738,4.245h16.26a22.2,22.2,0,0,1,.376-2.919,12.93,12.93,0,0,1,3.552-6.957,2.908,2.908,0,0,1,1.693-.909,3.088,3.088,0,1,0,2.717-5.546c-2.617-1.3-5.917-.567-8.6,1.914a15.744,15.744,0,0,0-2.225,2.557,27.222,27.222,0,0,1,1.15-4.637,10.767,10.767,0,0,1,3.291-4.892,3.092,3.092,0,0,0-3.743-4.923,16.654,16.654,0,0,0-5.364,7.721c-.111.306-.217.618-.312.934-1.924-4.792-3.893-8.846-7.866-11.182a3.092,3.092,0,0,0-3.135,5.33c2.427,1.427,3.878,4.646,5.516,8.781a23.173,23.173,0,0,0-6.385-5.159,3.09,3.09,0,1,0-2.958,5.425,17.027,17.027,0,0,1,4.922,4.079,8.941,8.941,0,0,0-7.675.185A3.094,3.094,0,0,0,524.246,351.861Z" fill="#8ddbe0"/>
      <rect x="527.84" y="357.854" width="28.73" height="8.354" fill="#dee8f5"/>
      <path d="M527.843,366.207v9.157a4.3,4.3,0,0,0,4.3,4.3h20.143a4.3,4.3,0,0,0,4.3-4.3v-9.157Z" fill="#c1d8ed"/>
    </g>
  </g>
  <g>
    <rect x="626.284" y="90.271" width="340.355" height="435.299" fill="#c1d8ed"/>
    <g>
      <rect x="652.177" y="325.91" width="288.57" height="173.282" fill="#f3f5fd"/>
      <path d="M911.063,412.606a58.769,58.769,0,1,1-109.924-28.941l51.155,28.941,57.1-13.908h.013A58.766,58.766,0,0,1,911.063,412.606Z" fill="#c1d8ed"/>
      <path d="M909.4,398.7l-57.11,13.908,22.776-54.185A58.837,58.837,0,0,1,909.4,398.7Z" fill="#fdb754"/>
      <g>
        <rect x="682.221" y="372.13" width="78.025" height="12.881" fill="#c1d8ed"/>
        <rect x="682.221" y="406.111" width="78.025" height="12.881" fill="#c1d8ed"/>
        <rect x="682.221" y="440.091" width="78.025" height="12.881" fill="#c1d8ed"/>
      </g>
      <path d="M875.07,358.421l-22.776,54.185-51.155-28.941a58.8,58.8,0,0,1,73.931-25.244Z" fill="#fff"/>
    </g>
    <g>
      <rect x="657.084" y="515.833" width="12.42" height="35.5" fill="#c1d8ed"/>
      <rect x="923.414" y="515.833" width="12.43" height="35.5" fill="#c1d8ed"/>
    </g>
    <g>
      <rect x="652.177" y="116.65" width="288.57" height="186.591" fill="#f3f5fd"/>
      <g>
        <path d="M920.193,282.846H671.908a1.05,1.05,0,0,1-1.05-1.051V138.941a1.051,1.051,0,1,1,2.1,0v141.8H920.193a1.051,1.051,0,1,1,0,2.1Z" fill="#c1d8ed"/>
        <path d="M680.13,272.345a1.05,1.05,0,0,1-.692-1.842l66.593-58.117a1.05,1.05,0,0,1,1.366-.014l19.925,16.689,56.065-40.611a1.05,1.05,0,0,1,1.226,0l32.833,23.415,53.866-43.506a1.051,1.051,0,0,1,1.32,1.635h0L858.145,214a1.051,1.051,0,0,1-1.269.038l-32.868-23.441-56.116,40.649a1.052,1.052,0,0,1-1.291-.046l-19.864-16.638L680.82,272.083A1.051,1.051,0,0,1,680.13,272.345Z" fill="#c1d8ed"/>
        <circle cx="909.916" cy="170.687" r="4.902" fill="#c1d8ed"/>
        <g opacity="0.77">
          <g>
            <rect x="671.204" y="150.753" width="248.989" height="0.7" fill="#c1d8ed"/>
            <rect x="671.204" y="172.348" width="248.989" height="0.7" fill="#c1d8ed"/>
            <rect x="671.204" y="193.942" width="248.989" height="0.7" fill="#c1d8ed"/>
            <rect x="671.204" y="215.537" width="248.989" height="0.7" fill="#c1d8ed"/>
            <rect x="671.204" y="237.132" width="248.989" height="0.7" fill="#c1d8ed"/>
            <rect x="671.204" y="258.726" width="248.989" height="0.7" fill="#c1d8ed"/>
          </g>
        </g>
      </g>
    </g>
    <g>
      <path d="M560.134,551.333h-63.18c-2.94-16.7-6.05-33.33-9.5-49.79-1.41,15.81-2.94,32.5-4.56,49.79h-68.35c1.29-20.94,2.47-41.04,3.51-59.84.72-13.12,2.42-43.98,3.44-62.59.17-3.1.32-5.87.44-8.15.24-4.27.38-6.86.38-6.86l52.55,3.25,32.12,1.98,34.1,2.11.38,2.61.84,5.71.42-.13c.08.43.16.86.24,1.3C550.224,469.523,555.314,510.453,560.134,551.333Z" fill="#55affc"/>
      <g>
        <g>
          <path d="M458.706,244.38s12.072-6.4,9.377-39.274l24.942-4.624s-2.8,29.472,9.816,38.83Z" fill="#eda59f"/>
          <g opacity="0.15">
            <path d="M497.73,233.15,477.009,217.3l16.275-.168C493.905,222.608,495.186,228.487,497.73,233.15Z"/>
          </g>
          <path d="M453.931,192.359c1.727,9.974,7.169,19.418,15.967,22.64,10.443,3.825,18.219,5.067,30.221,4.083,27.3-2.239,21.9-64.324,8.94-76.383s-51.009-4.423-55.637,15.748C451.029,168.879,452.287,182.866,453.931,192.359Z" fill="#eda59f"/>
          <g>
            <circle cx="492.989" cy="182.415" r="2.262" fill="#0f1011"/>
            <circle cx="510.836" cy="180.951" r="2.262" fill="#0f1011"/>
            <path d="M514.756,176.131h-.014l-5.992-.075a1.063,1.063,0,0,1,.014-2.126h.013l5.992.075a1.063,1.063,0,0,1-.013,2.126Z" fill="#0f1011"/>
            <path d="M488.106,178.316a1.063,1.063,0,0,1-.248-2.1l5.909-1.422a1.063,1.063,0,1,1,.5,2.066l-5.909,1.422A1.029,1.029,0,0,1,488.106,178.316Z" fill="#0f1011"/>
          </g>
          <path d="M469.545,213.808c-.518,1.658-.88,2.381-2.374,1.494-5.865-3.485-17.5-11.066-22-39.471-4.029-25.451,11.672-35.948,24.192-39.694,10.793-3.228,33.263-.947,45.389,5.646,9,4.891,2.413,18.008,2.413,18.008-4.5.208-3.516-11.742-14.138-11.742-8.211,0-15.445,12.15-23.133,12.473-7.038.3-8.483,4.586-8.234,7.331C473.178,184.536,471.378,207.944,469.545,213.808Z" fill="#0f1011"/>
          <path d="M481.222,187.95a9.59,9.59,0,1,1-19.116,1.567c-.433-5.278,3.481-10.168,8.774-10.341C477.715,178.953,480.789,182.671,481.222,187.95Z" fill="#eda59f"/>
          <g opacity="0.15">
            <path d="M503.031,194.962a.781.781,0,0,1-.23-1.527l4.6-1.413-3.219-7.166a.781.781,0,0,1,1.424-.64l3.581,7.972a.781.781,0,0,1-.483,1.067l-5.446,1.672A.768.768,0,0,1,503.031,194.962Z"/>
          </g>
          <path d="M494.036,200.23s8.35.881,14.2-1.164c0,0-.046,5.5-6.654,6.041S494.036,200.23,494.036,200.23Z" fill="#fff"/>
        </g>
        <path d="M515.5,142.628c8.094,5.421,6.5,15.806,4.982,24.817h-10.02l-4.2-14.585-5.126,14.585L462.073,168.8l4.711-19.373Z" fill="#0f1011"/>
        <circle cx="442.042" cy="200.482" r="21.866" fill="#0f1011"/>
      </g>
      <g>
        <path d="M398.607,448.242c0,4.654,2.457,20.206-1.494,21.318-2.37.667-5.168-10.928-5.168-10.928Z" fill="#eda59f"/>
        <path d="M379.955,445.8s-12.9,31.4,1.814,49.442a2.948,2.948,0,0,0,5.224-1.688c.715-12.163,3.168-37.148,11.188-34.229V439.705Z" fill="#eda59f"/>
      </g>
      <path d="M405.439,453.607l-33.672-5,14.255-96.086a16.953,16.953,0,0,1,.593-2.585l28.549-91.233,32.486,10.166L419.5,358.836Z" fill="#2f3235"/>
      <g>
        <path d="M550.326,418.179c-6.54,15.035-131.64,21.279-133.357-5.167-1.093-16.83,12.655-32.55,12.655-65.35,0-32.785-24.612-65.743-.024-90.332,7.136-7.134,11.538-19.655,26.556-19.671,1.124,8.758,54.3,8.789,54.7.2,2.03.031,3.606.062,4.59.109,51.8,2.233,25.115,61.32,24.615,104.627C539.456,393.275,557.071,402.692,550.326,418.179Z" fill="#fff"/>
        <path d="M510.991,237.586c-.406,8.587-5.074,21.217-19.484,22.169-19.2,1.264-34.1-13.614-35.221-22.372h.047C475.239,237.383,499.968,237.414,510.991,237.586Z" fill="#eda59f"/>
        <g>
          <path d="M628.974,246.168s.234-18.75,13.637-17.774c8.456.615,48.633-1.249,49.231,2.409,1.48,9.055-35.271,11.268-38.605,19.707Z" fill="#eda59f"/>
          <path d="M637.865,229s18.655-6.089,23.24-5c4.059.965-4.4,7.572-4.4,7.572Z" fill="#eda59f"/>
        </g>
        <path d="M627.4,235.215l-33.419,62.4-51.458-50.2c-2.223-2.01-10.866-9.312-23.263-9.787,0,0-15.639-.078-15.6-.161-1.225,2.825.562,58.793,2.123,89.517,1.706,33.259-.048,74.794,1.538,98.666a11.359,11.359,0,0,0,13.044,10.464c16.816-2.573,29.925-6.955,31.837-11.35,6.745-15.487-8.819-31.632-8.21-82.308,0-.293.012-.59.017-.885l.11.608c.158-13.639,2.471-28.876,4.085-43.42l38.489,37.544a16.448,16.448,0,0,0,12.151,4.652,16.765,16.765,0,0,0,13.952-9.032L656.3,250.692Z" fill="#2f3235"/>
        <path d="M427.274,348.687c0,32.8-14.831,47.491-13.738,64.321.673,10.511,6.046,23.809,46.562,26.658a12.83,12.83,0,0,0,13.636-11.234c7.766-64.566-6.366-150.55-10.336-179.549-2.339-12.376-2.889-11.622-8.759-11.627-15.018.016-25.819,5.02-32.953,12.155C397.1,274,427.274,315.9,427.274,348.687Z" fill="#2f3235"/>
        <g>
          <path d="M449.96,274.339l3.872-12.692-7.462-4.887,4.234-19.4c5.554-.29,9.756-.27,11.364-.207,3.685,12.317,9.511,66.895,10.947,87.549Z" fill="#2f3235"/>
          <g opacity="0.24">
            <path d="M449.96,274.339l3.872-12.692-7.462-4.887,4.234-19.4c5.554-.29,9.756-.27,11.364-.207,3.685,12.317,9.511,66.895,10.947,87.549Z" fill="#fff"/>
          </g>
          <path d="M514.594,261.647l7.337,11.131-16.31,51.181s-3.746-72.109-2.238-86.567c0,0,3.924.087,6.482.051,3.207-.045,6.085.041,6.085.041l6.106,19.276Z" fill="#2f3235"/>
          <g opacity="0.24">
            <path d="M514.594,261.647l7.337,11.131-16.31,51.181s-3.746-72.109-2.238-86.567c0,0,3.924.087,6.482.051,3.207-.045,6.085.041,6.085.041l6.106,19.276Z" fill="#fff"/>
          </g>
        </g>
      </g>
    </g>
  </g>
  <rect x="300.214" y="52.413" width="718.71" height="498.92" rx="12.23" fill="none"/>
</svg>
